<svg id="Capa_1" enable-background="new 0 0 512.002 512.002" height="512" viewBox="0 0 512.002 512.002" width="512" xmlns="http://www.w3.org/2000/svg"><g><path d="m497.375 337.783h-4.604v-73.366c0-4.142-3.357-7.5-7.5-7.5s-7.5 3.358-7.5 7.5v73.366h-231.241v-145.25c0-28.881-14.536-54.419-36.666-69.72h62.643v82.069c-10.375 6.88-17.232 18.658-17.232 32.013 0 21.169 17.223 38.392 38.392 38.392s38.392-17.222 38.392-38.392c0-13.354-6.858-25.133-17.232-32.013v-71.595l22.488-10.474h70.739c38.443 0 69.719 31.276 69.719 69.719v36.885c0 4.142 3.357 7.5 7.5 7.5s7.5-3.358 7.5-7.5v-36.885c0-46.714-38.005-84.719-84.72-84.719h-38.533l29.157-13.58c11.144-5.191 11.132-21.029 0-26.213l-83.851-39.054v-15.194c-.001-7.594-6.18-13.772-13.773-13.772h-14.773c-7.594 0-13.772 6.178-13.772 13.772v94.041h-110.697c-37.673 0-70.665 24.878-81.257 60.797h-66.036c-8.047 0-14.518 6.609-14.518 14.518v126.312c0 7.957 6.517 14.518 14.518 14.518h62.572v13.839c-7.946.139-14.37 6.635-14.37 14.614v16.789c0 8.065 6.562 14.627 14.627 14.627h130.791v14.798c0 8.958 7.287 16.245 16.244 16.245h32.06v82.274c0 8.193 6.666 14.859 14.859 14.859h32.12c8.193 0 14.859-6.666 14.859-14.859v-24.505c0-4.142-3.357-7.5-7.5-7.5s-7.5 3.358-7.5 7.5v24.364h-31.839v-82.134h31.839v22.77c0 4.142 3.357 7.5 7.5 7.5s7.5-3.358 7.5-7.5v-22.77h32.059c8.958 0 16.245-7.287 16.245-16.245v-14.798h130.791c8.065 0 14.627-6.562 14.627-14.627v-16.789c0-8.065-6.562-14.627-14.627-14.627zm-182.55-292.27 76.463 35.613-76.463 35.613zm-27.318-30.513h12.318v184.003c-3.988-.646-8.07-.688-12.318 0zm6.159 198.503c12.898 0 23.392 10.494 23.392 23.392s-10.493 23.392-23.392 23.392-23.392-10.494-23.392-23.392 10.494-23.392 23.392-23.392zm-131.855-90.69c38.443 0 69.72 31.276 69.72 69.72v145.25h-139.441v-13.826h108.193c7.982 0 14.518-6.542 14.518-14.518v-126.311c0-7.946-6.506-14.518-14.518-14.518h-103.95c9.909-27.016 36.09-45.797 65.478-45.797zm37.99 176.441-59.271-52.969 59.271-52.97zm-113.534-115.644h.031 101.85l-73.904 66.047c-3.901 3.487-9.786 3.487-13.688 0-11.397-10.186-62.875-56.191-73.903-66.047zm-71.267 9.703 59.272 52.971-59.272 52.971zm11.654 115.645 58.873-52.614 5.033 4.498c9.601 8.578 24.078 8.579 33.68 0l5.033-4.498 58.874 52.614zm324.93 89.666c0 .687-.559 1.245-1.245 1.245h-125.957c-.686 0-1.244-.558-1.244-1.245v-14.798h128.446zm145.418-29.798c-21.588 0-393.942 0-419.282 0v-16.042h419.282z"/></g></svg>