<svg id="Capa_1" enable-background="new 0 0 512 512" height="512" viewBox="0 0 512 512" width="512" xmlns="http://www.w3.org/2000/svg"><g><path d="m167.862 472.053c25.82 25.819 60.585 39.948 98.146 39.947.851 0 1.709-.008 2.563-.022 36.08-.615 69.937-14.085 96.023-38.055 4.837 2.577 10.184 3.869 15.532 3.869 7.54 0 15.075-2.568 21.183-7.688 7.654 1.975 15.479-.23 20.894-5.644l28.662-28.661c8.489-8.489 8.489-22.31 0-30.799l-92.226-92.225c-8.482-8.48-22.31-8.49-30.8 0l-28.661 28.661c-5.654 5.654-7.52 13.665-5.645 20.897-9.095 10.851-10.115 26.217-3.05 38.077l-19.505 19.503c-6.795 6.795-15.846 10.538-25.488 10.538s-18.693-3.743-25.488-10.538l-126.189-126.191c-14.055-14.054-14.055-36.923 0-50.978l19.421-19.42c12.016 7.418 27.591 6.385 38.52-2.777 7.654 1.975 15.479-.23 20.894-5.644l2.04-2.04c2.909-2.909 2.909-7.626 0-10.535-2.91-2.909-7.626-2.909-10.536 0l-2.04 2.04c-2.718 2.72-7.089 2.639-9.728 0l-92.225-92.225c-2.647-2.647-2.715-7.014 0-9.729l28.661-28.661c2.681-2.681 7.047-2.683 9.728 0l92.225 92.226c2.683 2.682 2.682 7.046.001 9.728l-2.04 2.039c-2.91 2.908-2.91 7.625-.001 10.535 2.909 2.909 7.626 2.911 10.535.001l2.041-2.04c8.49-8.492 8.49-22.308 0-30.799l-92.225-92.226c-8.491-8.491-22.306-8.493-30.8 0l-28.661 28.663c-5.406 5.406-7.621 13.228-5.643 20.895-8.633 10.298-9.989 24.661-4.066 36.237-24.04 26.102-37.55 60.007-38.167 96.143-.658 38.539 13.521 74.304 39.925 100.708zm141.852-120.083 28.661-28.661c2.662-2.662 7.057-2.671 9.728 0l92.226 92.225c2.683 2.682 2.683 7.046 0 9.729l-28.662 28.661c-2.71 2.71-7.081 2.649-9.728 0l-92.225-92.225c-2.66-2.66-2.701-7.028 0-9.729zm-7.151 23.648 85.458 85.458c-6.746 3.264-15.108 2.119-20.698-3.472l-61.287-61.287c-5.592-5.591-6.737-13.952-3.473-20.699zm-249.556-249.555 85.458 85.458c-6.738 3.26-15.085 2.121-20.676-3.451-.019-.019-.039-.038-.059-.057l-61.25-61.252c-5.592-5.591-6.737-13.952-3.473-20.698zm-3.616 34.681 52.676 52.676-18.79 18.79c-19.863 19.864-19.863 52.184 0 72.048l126.191 126.19c9.61 9.61 22.402 14.902 36.024 14.902s26.414-5.292 36.023-14.902l18.791-18.79 52.673 52.674c-49.881 44.277-128.159 43.609-174.581-2.813l-126.19-126.19c-46.434-46.434-47.092-124.739-2.817-174.585z"/><path d="m272.059 181.214c28.678 5.416 51.586 28.323 57.001 57.002 2.546 13.476 15.578 22.366 29.056 19.822 13.47-2.548 22.362-15.58 19.821-29.052 0 0 0-.001-.001-.002-9.262-49.031-47.613-87.382-96.647-96.646-13.483-2.541-26.505 6.35-29.053 19.822-2.544 13.475 6.348 26.508 19.823 29.054zm-5.182-26.287c1.023-5.408 6.257-8.968 11.648-7.949 42.648 8.058 76.715 42.124 84.772 84.769 1.019 5.403-2.547 10.629-7.947 11.651-5.398 1.018-10.629-2.545-11.648-7.947-6.592-34.901-33.921-62.276-68.877-68.877-5.403-1.021-8.968-6.247-7.948-11.647z"/><path d="m295.199 115.237c50.152 9.565 90.275 49.687 99.84 99.838 1.244 6.525 4.956 12.176 10.449 15.91 18.185 12.362 42.569-3.409 38.408-25.228-13.459-70.565-68.712-125.899-139.379-139.38-13.464-2.568-26.519 6.3-29.089 19.77-2.567 13.47 6.302 26.519 19.771 29.09zm-5.135-26.299c1.031-5.4 6.262-8.955 11.663-7.926 65.066 12.413 115.127 62.474 127.535 127.536 1.031 5.41-2.51 10.63-7.925 11.661-2.043 1.021-10.233-.421-11.663-7.926-10.786-56.554-55.136-100.898-111.683-111.682-5.4-1.03-8.956-6.262-7.927-11.663z"/><path d="m462.188 80.7c-2.603-3.184-7.295-3.658-10.483-1.054-3.185 2.603-3.658 7.297-1.054 10.483 22.467 27.492 37.869 60.424 44.541 95.236 1.035 5.397-2.491 10.628-7.916 11.668-5.42 1.038-10.632-2.509-11.669-7.915-14.944-77.963-76.045-139.42-154.451-154.45-5.412-1.037-8.953-6.254-7.915-11.672 1.038-5.423 6.27-8.949 11.669-7.913 38.087 7.3 73.536 24.85 102.513 50.754 3.066 2.743 7.776 2.478 10.518-.589s2.478-7.777-.59-10.518c-30.987-27.703-68.898-46.473-109.636-54.28-13.495-2.585-26.521 6.233-29.106 19.742-2.587 13.5 6.241 26.519 19.743 29.107 71.586 13.723 128.902 71.038 142.623 142.624 2.59 13.505 15.615 22.329 29.107 19.742 13.499-2.587 22.331-15.606 19.743-29.106-7.136-37.234-23.608-72.456-47.637-101.859z"/></g></svg>